<?xml version="1.0" standalone="no"?>
<!DOCTYPE svg PUBLIC "-//W3C//DTD SVG 20010904//EN"
 "http://www.w3.org/TR/2001/REC-SVG-20010904/DTD/svg10.dtd">
<svg version="1.0" xmlns="http://www.w3.org/2000/svg"
 width="500.000000pt" height="500.000000pt" viewBox="0 0 500.000000 500.000000"
 preserveAspectRatio="xMidYMid meet">
<metadata>
Created by potrace 1.11, written by Peter Selinger 2001-2013
</metadata>
<g transform="translate(0.000000,500.000000) scale(0.100000,-0.100000)"
fill="#000000" stroke="none">
<path d="M4101 4694 c-60 -16 -162 -67 -185 -93 -12 -13 -13 -31 -4 -111 6
-52 12 -97 14 -99 1 -2 24 15 51 37 131 109 285 123 343 30 18 -28 21 -45 17
-104 -3 -61 -10 -83 -46 -150 -34 -62 -218 -352 -385 -606 l-18 -28 346 0 346
0 0 95 0 95 -175 2 -175 3 100 155 c108 166 181 306 199 382 16 66 14 155 -5
218 -22 74 -100 152 -174 174 -66 20 -177 20 -249 0z"/>
<path d="M1345 3918 c-3 -18 -93 -665 -200 -1438 -107 -773 -197 -1417 -199
-1432 l-5 -28 279 0 c154 0 280 3 280 6 0 24 242 1895 248 1915 6 23 55 -60
376 -632 202 -363 371 -661 375 -664 4 -2 174 295 377 661 328 592 370 662
376 637 6 -22 248 -1894 248 -1917 0 -3 126 -6 280 -6 l280 0 -6 28 c-2 15
-92 659 -199 1432 -107 773 -197 1420 -200 1438 l-6 32 -215 0 -214 0 -19 -30
c-10 -17 -170 -316 -356 -665 -262 -490 -342 -632 -351 -623 -6 7 -165 301
-353 653 -189 352 -348 646 -353 653 -8 9 -65 12 -224 12 l-213 0 -6 -32z"/>
</g>
</svg>
